<svg xmlns="http://www.w3.org/2000/svg" xmlns:xlink="http://www.w3.org/1999/xlink" width="500" zoomAndPan="magnify" viewBox="0 0 375 374.999991" height="500" preserveAspectRatio="xMidYMid meet" version="1.0"><defs><g/><clipPath id="0f8cbd9b12"><path d="M 99.09375 73.070312 L 183.09375 73.070312 L 183.09375 159 L 99.09375 159 Z M 99.09375 73.070312 " clip-rule="nonzero"/></clipPath><clipPath id="a70e339b83"><path d="M 192.085938 72.773438 L 261 72.773438 L 261 159 L 192.085938 159 Z M 192.085938 72.773438 " clip-rule="nonzero"/></clipPath><clipPath id="ac6729b495"><path d="M 238 121 L 275.808594 121 L 275.808594 159 L 238 159 Z M 238 121 " clip-rule="nonzero"/></clipPath><clipPath id="b1e31a6231"><path d="M 117.074219 168.859375 L 183.824219 168.859375 L 183.824219 239.359375 L 117.074219 239.359375 Z M 117.074219 168.859375 " clip-rule="nonzero"/></clipPath><clipPath id="b84271953a"><path d="M 192.085938 168.878906 L 217 168.878906 L 217 233 L 192.085938 233 Z M 192.085938 168.878906 " clip-rule="nonzero"/></clipPath><clipPath id="696aeddd39"><path d="M 203 168.878906 L 246 168.878906 L 246 239.378906 L 203 239.378906 Z M 203 168.878906 " clip-rule="nonzero"/></clipPath><clipPath id="3d5406fb15"><path d="M 241 168.878906 L 257.335938 168.878906 L 257.335938 239.378906 L 241 239.378906 Z M 241 168.878906 " clip-rule="nonzero"/></clipPath><clipPath id="f087f6c756"><path d="M 239 228 L 250 228 L 250 239.378906 L 239 239.378906 Z M 239 228 " clip-rule="nonzero"/></clipPath></defs><path fill="#51c7f4" d="M 134.917969 114.015625 C 140.308594 114.835938 144.734375 118.90625 149.019531 122.082031 C 144.804688 121.902344 140.59375 122.152344 136.417969 122.507812 C 134.632812 120.9375 133.132812 118.90625 132.5625 116.585938 C 132.167969 115.121094 133.417969 113.800781 134.917969 114.015625 Z M 134.917969 114.015625 " fill-opacity="1" fill-rule="nonzero"/><path fill="#51c7f4" d="M 168.9375 127.972656 C 167.367188 129.863281 165.011719 131.042969 162.367188 131.042969 C 158.550781 131.042969 155.265625 128.507812 154.195312 125.007812 C 149.019531 124.402344 143.734375 124.257812 138.523438 124.652344 C 140.628906 127.042969 143.128906 129.007812 145.625 130.96875 C 145.625 130.96875 144.878906 132.824219 144.804688 133.003906 C 144.589844 133.753906 144.449219 134.503906 144.484375 135.289062 C 144.519531 136.859375 145.089844 138.359375 146.554688 139.109375 C 148.980469 140.359375 152.445312 139.859375 153.800781 137.289062 C 154.695312 135.574219 153.980469 133.71875 153.695312 131.933594 C 159.691406 131.398438 166.832031 133.574219 171.828125 129.328125 C 171.113281 128.972656 169.6875 128.328125 168.9375 127.972656 Z M 149.230469 137.289062 C 147.984375 137.289062 147.019531 136.289062 147.019531 135.074219 C 147.019531 133.859375 148.019531 132.863281 149.230469 132.863281 C 150.445312 132.863281 151.445312 133.859375 151.445312 135.074219 C 151.445312 136.289062 150.480469 137.289062 149.230469 137.289062 Z M 149.230469 137.289062 " fill-opacity="1" fill-rule="nonzero"/><g clip-path="url(#0f8cbd9b12)"><path fill="#51c7f4" d="M 183.285156 73.320312 C 181.824219 74.140625 180.359375 74.960938 178.96875 75.890625 C 165.546875 85.0625 152.085938 94.203125 138.628906 103.339844 C 125.492188 112.265625 112.320312 121.1875 99.148438 130.113281 C 99.183594 135.394531 99.183594 140.714844 99.148438 146 C 105.183594 146 111.214844 145.960938 117.246094 146.070312 C 117.246094 147.496094 117.246094 148.925781 117.210938 150.351562 C 117.210938 153.207031 117.210938 156.101562 117.285156 158.957031 C 120.960938 158.882812 124.636719 158.882812 128.347656 158.921875 C 128.136719 148.425781 127.777344 137.894531 127.671875 127.398438 C 127.0625 124.1875 131.457031 124.472656 132.632812 122.507812 C 131.277344 120.082031 129.847656 117.621094 129.671875 114.871094 C 129.5625 113.515625 130.277344 112.195312 131.492188 111.585938 C 132.738281 110.945312 134.703125 110.621094 137.488281 111.980469 C 143.769531 114.050781 148.589844 118.941406 153.835938 122.796875 C 153.835938 122.6875 153.835938 122.582031 153.835938 122.472656 C 153.835938 117.761719 157.65625 113.941406 162.367188 113.941406 C 167.082031 113.941406 170.898438 117.761719 170.898438 122.472656 C 170.898438 123.6875 170.648438 124.828125 170.1875 125.902344 C 171.792969 126.722656 173.503906 127.398438 174.753906 128.722656 C 175.46875 130.007812 174.898438 131.539062 174.789062 132.898438 C 173.113281 141.535156 171.648438 150.246094 169.972656 158.882812 C 174.363281 158.882812 178.789062 158.882812 183.214844 158.921875 C 183.464844 130.398438 183.324219 101.839844 183.285156 73.320312 Z M 156.015625 112.371094 C 153.300781 112.371094 151.125 110.195312 151.125 107.480469 C 151.125 104.804688 153.300781 102.589844 156.015625 102.589844 C 158.691406 102.589844 160.90625 104.769531 160.90625 107.480469 C 160.90625 110.195312 158.726562 112.371094 156.015625 112.371094 Z M 168.507812 102.089844 C 166.152344 102.089844 164.226562 100.164062 164.226562 97.808594 C 164.226562 95.453125 166.152344 93.523438 168.507812 93.523438 C 170.863281 93.523438 172.792969 95.453125 172.792969 97.808594 C 172.792969 100.164062 170.898438 102.089844 168.507812 102.089844 Z M 168.507812 102.089844 " fill-opacity="1" fill-rule="nonzero"/></g><g clip-path="url(#a70e339b83)"><path fill="#fab60a" d="M 191.636719 78.769531 C 191.636719 76.769531 191.78125 74.769531 191.960938 72.773438 C 206.773438 82.910156 221.695312 92.90625 236.507812 103.078125 C 242.613281 107.21875 248.71875 111.359375 254.855469 115.5 C 249.894531 118.105469 244.613281 119.855469 239.402344 121.925781 C 224.835938 127.710938 210.164062 133.136719 195.707031 139.203125 C 196.027344 139.847656 196.636719 141.058594 196.957031 141.703125 C 212.628906 135.382812 228.441406 129.386719 244.21875 123.246094 C 249.539062 121.460938 254.535156 118.464844 260.175781 117.820312 C 258 120.710938 254.25 121.355469 251.109375 122.675781 C 240.507812 126.851562 229.871094 130.777344 219.339844 135.132812 C 212.058594 137.847656 204.8125 140.703125 197.601562 143.59375 C 197.886719 144.378906 198.457031 145.914062 198.777344 146.664062 C 201.777344 145.84375 204.632812 144.164062 207.808594 144.023438 C 215.625 145.308594 223.765625 143.164062 231.367188 146.09375 C 231.261719 147.84375 231.15625 149.554688 231.082031 151.304688 C 232.261719 151.410156 233.4375 151.519531 234.617188 151.625 C 235.582031 153.945312 236.542969 156.265625 237.472656 158.585938 C 222.230469 158.621094 206.953125 158.695312 191.710938 158.585938 C 191.601562 131.921875 191.601562 105.328125 191.636719 78.769531 Z M 205.882812 93.832031 C 205.308594 95.9375 204.738281 98.046875 203.917969 100.082031 C 202.527344 100.542969 201.132812 101.042969 199.742188 101.542969 C 201.277344 102.113281 202.8125 102.6875 204.382812 103.222656 C 204.8125 105.148438 205.308594 107.078125 205.882812 109.003906 C 206.382812 107.039062 206.738281 105.078125 207.09375 103.113281 C 209.023438 102.4375 210.984375 101.828125 212.984375 101.4375 C 211.058594 101.078125 209.164062 100.542969 207.273438 100.042969 C 206.773438 97.972656 206.34375 95.902344 205.882812 93.832031 Z M 223.265625 110.894531 C 221.050781 111.644531 218.804688 112.324219 216.589844 113.039062 C 218.730469 113.644531 220.910156 114.179688 223.085938 114.644531 C 223.910156 117.429688 224.621094 120.25 225.480469 122.996094 C 226.15625 120.175781 226.800781 117.394531 227.726562 114.644531 C 229.941406 114.179688 232.152344 113.679688 234.332031 113.039062 C 232.082031 112.289062 229.796875 111.609375 227.550781 110.894531 C 226.765625 108.289062 226.15625 105.648438 225.480469 103.042969 C 224.621094 105.648438 223.980469 108.289062 223.265625 110.894531 Z M 223.265625 110.894531 " fill-opacity="1" fill-rule="nonzero"/></g><g clip-path="url(#ac6729b495)"><path fill="#fab60a" d="M 254.5 125.210938 C 257.425781 124.03125 260.390625 122.78125 263.246094 121.390625 C 263.640625 121.640625 264.460938 122.105469 264.851562 122.355469 C 268.566406 124.746094 272.171875 127.316406 275.847656 129.78125 C 275.847656 135.0625 275.847656 140.382812 275.847656 145.664062 C 269.8125 145.699219 263.816406 145.59375 257.785156 145.734375 C 257.75 149.414062 257.820312 153.054688 257.890625 156.730469 C 257.855469 157.195312 257.75 158.121094 257.675781 158.585938 C 252.75 158.585938 247.789062 158.660156 242.863281 158.445312 C 241.863281 155.625 240.507812 152.910156 239.863281 149.984375 C 240.363281 148.699219 241.183594 147.519531 241.863281 146.308594 C 240.613281 145.414062 239.402344 144.523438 238.152344 143.628906 C 239.078125 141.882812 240.042969 140.167969 241.183594 138.5625 C 245.289062 133.777344 251.179688 130.707031 254.5 125.210938 Z M 254.5 125.210938 " fill-opacity="1" fill-rule="nonzero"/></g><path fill="#4ac199" d="M 154.621094 181.878906 C 156.726562 182.699219 159.621094 182.699219 160.871094 184.875 C 160.941406 187.730469 157.515625 188.515625 155.65625 189.910156 C 155.230469 187.230469 154.871094 184.554688 154.621094 181.878906 Z M 154.621094 181.878906 " fill-opacity="1" fill-rule="nonzero"/><g clip-path="url(#b1e31a6231)"><path fill="#4ac199" d="M 183.324219 182.09375 C 176.71875 182.804688 170.148438 183.664062 163.546875 184.304688 C 170.113281 181.804688 176.789062 179.59375 183.394531 177.164062 C 183.359375 175.878906 183.324219 174.59375 183.285156 173.308594 C 176.71875 176.308594 170.222656 179.59375 163.511719 182.378906 C 169.652344 177.558594 176.113281 173.132812 182.289062 168.3125 C 160.621094 168.277344 138.914062 168.3125 117.246094 168.3125 C 117.210938 177.308594 117.246094 186.304688 117.246094 195.300781 C 119.246094 192.65625 121.351562 189.910156 124.03125 187.910156 C 125.457031 186.980469 128.347656 185.554688 133.277344 185.019531 C 139.84375 184.164062 146.410156 183.199219 153.015625 182.414062 C 153.300781 184.910156 153.621094 187.375 153.945312 189.839844 C 152.375 190.085938 150.765625 190.335938 149.195312 190.585938 C 150.554688 193.980469 152.015625 197.476562 154.585938 200.15625 C 156.40625 202.1875 159.226562 203.367188 159.976562 206.1875 C 151.515625 205.582031 145.125 198.871094 142.234375 191.335938 C 140.023438 196.085938 140.449219 201.476562 139.773438 206.542969 C 135.917969 207.113281 132.0625 207.613281 128.207031 208.113281 C 127.242188 206.078125 126.277344 204.007812 125.316406 201.976562 C 122.671875 202.332031 119.925781 202.402344 117.390625 203.261719 C 117.070312 212.253906 117.460938 221.25 117.175781 230.246094 C 117.285156 233.246094 117.285156 236.207031 117.285156 239.207031 C 119.246094 239.207031 121.175781 239.207031 123.136719 239.242188 C 123.601562 233.066406 124.457031 226.75 127.671875 221.359375 C 124.421875 219.894531 124.886719 215.648438 125.742188 212.863281 C 127.242188 209.257812 131.492188 209.078125 134.8125 208.613281 C 137.453125 208.4375 140.523438 207.4375 142.878906 209.222656 C 145.589844 211.042969 145.734375 214.574219 146.375 217.46875 C 145.664062 217.929688 144.949219 218.394531 144.269531 218.859375 C 150.054688 224.214844 152.550781 231.960938 154.835938 239.277344 C 164.367188 239.207031 173.898438 239.386719 183.429688 239.207031 C 183.429688 223.035156 183.394531 206.867188 183.429688 190.695312 C 176.824219 189.089844 170.222656 187.375 163.582031 185.945312 C 170.1875 185.660156 176.824219 185.519531 183.429688 185.484375 C 183.359375 184.339844 183.324219 183.199219 183.324219 182.09375 Z M 155.65625 189.910156 C 155.230469 187.230469 154.871094 184.554688 154.621094 181.878906 C 156.726562 182.699219 159.621094 182.699219 160.871094 184.875 C 160.90625 187.730469 157.476562 188.515625 155.65625 189.910156 Z M 155.65625 189.910156 " fill-opacity="1" fill-rule="nonzero"/></g><g clip-path="url(#b84271953a)"><path fill="#f02e2c" d="M 191.425781 168.382812 C 199.632812 168.207031 207.878906 168.207031 216.089844 168.347656 C 215.019531 169.703125 213.914062 171.027344 212.914062 172.417969 C 211.808594 174.453125 210.949219 176.628906 210.128906 178.773438 C 209.664062 178.949219 208.738281 179.273438 208.308594 179.449219 C 208.34375 182.378906 208.558594 185.339844 207.988281 188.230469 C 205.523438 200.15625 203.0625 212.113281 200.707031 224.070312 C 200.132812 226.960938 198.8125 229.640625 197.527344 232.28125 C 195.457031 232.210938 193.351562 232.101562 191.28125 232.03125 C 191.710938 210.792969 191.386719 189.589844 191.425781 168.382812 Z M 191.425781 168.382812 " fill-opacity="1" fill-rule="nonzero"/></g><g clip-path="url(#696aeddd39)"><path fill="#f02e2c" d="M 215.875 173.023438 C 217.660156 171.0625 219.480469 168.207031 222.480469 168.277344 C 227.226562 168.132812 231.976562 168.347656 236.722656 168.242188 C 238.472656 169.742188 240.222656 171.277344 241.757812 172.988281 C 244.96875 177.773438 245.789062 183.625 245.433594 189.265625 C 245.078125 189.589844 244.363281 190.230469 244.003906 190.585938 C 243.96875 191.195312 243.933594 192.40625 243.898438 193.050781 C 243.328125 193.085938 242.183594 193.15625 241.613281 193.195312 C 240.972656 194.90625 240.507812 196.726562 239.542969 198.296875 C 236.867188 200.652344 233.582031 202.261719 231.296875 205.042969 C 223.980469 213.21875 221.480469 224.5 220.480469 235.136719 C 219.554688 235.28125 218.625 235.421875 217.695312 235.566406 C 217.484375 236.777344 217.234375 237.957031 217.019531 239.171875 C 215.984375 239.136719 214.949219 239.097656 213.914062 238.957031 C 213.734375 238.636719 213.414062 237.957031 213.234375 237.636719 C 212.59375 236.351562 211.949219 235.066406 211.308594 233.816406 C 208.773438 233.496094 206.238281 233.210938 203.703125 232.960938 C 203.667969 230.105469 203.417969 227.210938 204.097656 224.429688 C 206.632812 212.253906 209.058594 200.046875 211.59375 187.875 C 211.984375 184.589844 215.269531 181.628906 213.59375 178.238281 C 214.234375 176.453125 214.984375 174.703125 215.875 173.023438 Z M 215.875 173.023438 " fill-opacity="1" fill-rule="nonzero"/></g><g clip-path="url(#3d5406fb15)"><path fill="#f02e2c" d="M 241.433594 168.347656 C 246.789062 168.382812 252.214844 167.882812 257.535156 168.632812 C 257.714844 192.121094 257.535156 215.609375 257.605469 239.097656 C 256.285156 239.136719 254.964844 239.136719 253.644531 239.171875 C 253.785156 238.636719 254.035156 237.527344 254.144531 236.957031 C 255.679688 232.066406 253.179688 227.285156 249.144531 224.535156 C 250.214844 214.363281 250.753906 204.152344 251.574219 193.980469 C 251 193.90625 249.894531 193.765625 249.359375 193.691406 C 248.074219 186.234375 249.039062 177.878906 244.148438 171.488281 C 243.292969 170.417969 242.363281 169.382812 241.433594 168.347656 Z M 241.433594 168.347656 " fill-opacity="1" fill-rule="nonzero"/></g><g clip-path="url(#f087f6c756)"><path fill="#f02e2c" d="M 249.789062 233.921875 C 249.789062 234.261719 249.753906 234.601562 249.6875 234.933594 C 249.621094 235.265625 249.523438 235.589844 249.394531 235.902344 C 249.265625 236.21875 249.105469 236.515625 248.914062 236.800781 C 248.726562 237.082031 248.511719 237.34375 248.273438 237.582031 C 248.03125 237.824219 247.769531 238.039062 247.488281 238.226562 C 247.207031 238.414062 246.90625 238.574219 246.59375 238.707031 C 246.277344 238.835938 245.957031 238.933594 245.621094 239 C 245.289062 239.066406 244.953125 239.097656 244.613281 239.097656 C 244.273438 239.097656 243.9375 239.066406 243.601562 239 C 243.269531 238.933594 242.945312 238.835938 242.632812 238.707031 C 242.316406 238.574219 242.019531 238.414062 241.738281 238.226562 C 241.453125 238.039062 241.191406 237.824219 240.953125 237.582031 C 240.710938 237.34375 240.496094 237.082031 240.308594 236.800781 C 240.121094 236.515625 239.960938 236.21875 239.832031 235.902344 C 239.699219 235.589844 239.601562 235.265625 239.535156 234.933594 C 239.46875 234.601562 239.4375 234.261719 239.4375 233.921875 C 239.4375 233.582031 239.46875 233.246094 239.535156 232.914062 C 239.601562 232.582031 239.699219 232.257812 239.832031 231.941406 C 239.960938 231.628906 240.121094 231.332031 240.308594 231.046875 C 240.496094 230.765625 240.710938 230.503906 240.953125 230.261719 C 241.191406 230.023438 241.453125 229.808594 241.738281 229.621094 C 242.019531 229.429688 242.316406 229.269531 242.632812 229.140625 C 242.945312 229.011719 243.269531 228.914062 243.601562 228.847656 C 243.9375 228.78125 244.273438 228.746094 244.613281 228.746094 C 244.953125 228.746094 245.289062 228.78125 245.621094 228.847656 C 245.957031 228.914062 246.277344 229.011719 246.59375 229.140625 C 246.90625 229.269531 247.207031 229.429688 247.488281 229.621094 C 247.769531 229.808594 248.03125 230.023438 248.273438 230.261719 C 248.511719 230.503906 248.726562 230.765625 248.914062 231.046875 C 249.105469 231.332031 249.265625 231.628906 249.394531 231.941406 C 249.523438 232.257812 249.621094 232.582031 249.6875 232.914062 C 249.753906 233.246094 249.789062 233.582031 249.789062 233.921875 Z M 249.789062 233.921875 " fill-opacity="1" fill-rule="nonzero"/></g><g fill="#2b8eb4" fill-opacity="1"><g transform="translate(92.464235, 277.641383)"><g><path d="M 25.25 -19.59375 L 17.84375 -19.59375 L 17.84375 0 L 9.03125 0 L 9.03125 -19.59375 L 1.578125 -19.59375 L 1.578125 -27.203125 L 25.25 -27.203125 Z M 25.25 -19.59375 "/></g></g></g><g fill="#2b8eb4" fill-opacity="1"><g transform="translate(121.200917, 277.641383)"><g><path d="M 22.359375 -11.75 C 24.328125 -10.195312 25.3125 -7.769531 25.3125 -4.46875 L 25.3125 0 L 17.25 0 L 17.25 -5.609375 C 17.25 -8.003906 16.125 -9.398438 13.875 -9.796875 L 10.609375 -9.796875 L 10.609375 0 L 1.796875 0 L 1.796875 -27.203125 L 16.15625 -27.203125 C 19.132812 -27.203125 21.429688 -26.445312 23.046875 -24.9375 C 24.660156 -23.4375 25.46875 -21.289062 25.46875 -18.5 C 25.46875 -15.457031 24.429688 -13.207031 22.359375 -11.75 Z M 14.96875 -16.328125 C 16.707031 -16.328125 17.578125 -17 17.578125 -18.34375 C 17.578125 -19.71875 16.707031 -20.40625 14.96875 -20.40625 L 10.609375 -20.40625 L 10.609375 -16.328125 Z M 14.96875 -16.328125 "/></g></g></g><g fill="#2b8eb4" fill-opacity="1"><g transform="translate(150.046444, 277.641383)"><g><path d="M 19.53125 -3.96875 L 10.390625 -3.96875 L 8.921875 0 L 0.375 0 L 10.5625 -27.203125 L 19.484375 -27.203125 L 29.546875 0 L 20.953125 0 Z M 17.140625 -10.5 L 15.015625 -17.953125 L 12.78125 -10.5 Z M 17.140625 -10.5 "/></g></g></g><g fill="#2b8eb4" fill-opacity="1"><g transform="translate(181.830936, 277.641383)"><g><path d="M 12.6875 -27.203125 C 16.78125 -27.203125 19.929688 -26.023438 22.140625 -23.671875 C 24.359375 -21.316406 25.46875 -17.960938 25.46875 -13.609375 C 25.46875 -9.253906 24.359375 -5.894531 22.140625 -3.53125 C 19.929688 -1.175781 16.78125 0 12.6875 0 L 1.796875 0 L 1.796875 -27.203125 Z M 13.21875 -7.625 C 14.34375 -7.625 15.210938 -8.148438 15.828125 -9.203125 C 16.453125 -10.253906 16.765625 -11.722656 16.765625 -13.609375 C 16.765625 -15.523438 16.453125 -17 15.828125 -18.03125 C 15.210938 -19.070312 14.34375 -19.59375 13.21875 -19.59375 L 10.609375 -19.59375 L 10.609375 -7.625 Z M 13.21875 -7.625 "/></g></g></g><g fill="#2b8eb4" fill-opacity="1"><g transform="translate(210.567621, 277.641383)"><g><path d="M 10.609375 -27.203125 L 10.609375 0 L 1.796875 0 L 1.796875 -27.203125 Z M 10.609375 -27.203125 "/></g></g></g><g fill="#2b8eb4" fill-opacity="1"><g transform="translate(224.881615, 277.641383)"><g><path d="M 16.546875 0 L 12.03125 -8.328125 L 10.609375 -6.265625 L 10.609375 0 L 1.796875 0 L 1.796875 -27.203125 L 10.609375 -27.203125 L 10.609375 -18.5625 L 16.703125 -27.203125 L 25.578125 -27.203125 L 17.25 -15.625 L 25.734375 0 Z M 16.546875 0 "/></g></g></g><g fill="#2b8eb4" fill-opacity="1"><g transform="translate(252.63864, 277.641383)"><g><path d="M 19.53125 -3.96875 L 10.390625 -3.96875 L 8.921875 0 L 0.375 0 L 10.5625 -27.203125 L 19.484375 -27.203125 L 29.546875 0 L 20.953125 0 Z M 17.140625 -10.5 L 15.015625 -17.953125 L 12.78125 -10.5 Z M 17.140625 -10.5 "/></g></g></g><g fill="#2b8eb4" fill-opacity="1"><g transform="translate(71.549597, 298.763505)"><g><path d="M 6.53125 0 L 1.296875 0 L 1.296875 -9.40625 L 6.53125 -9.40625 L 6.53125 -8.4375 L 2.390625 -8.4375 L 2.390625 -5.40625 L 6.28125 -5.40625 L 6.28125 -4.4375 L 2.390625 -4.4375 L 2.390625 -0.984375 L 6.53125 -0.984375 Z M 6.53125 0 "/></g></g></g><g fill="#2b8eb4" fill-opacity="1"><g transform="translate(82.169672, 298.763505)"><g><path d="M 6.65625 -9.40625 L 7.84375 -9.40625 L 4.453125 0 L 3.375 0 L 0 -9.40625 L 1.15625 -9.40625 L 3.3125 -3.3125 C 3.5625 -2.613281 3.757812 -1.9375 3.90625 -1.28125 C 4.0625 -1.976562 4.265625 -2.671875 4.515625 -3.359375 Z M 6.65625 -9.40625 "/></g></g></g><g fill="#2b8eb4" fill-opacity="1"><g transform="translate(93.304273, 298.763505)"><g><path d="M 6.53125 0 L 1.296875 0 L 1.296875 -9.40625 L 6.53125 -9.40625 L 6.53125 -8.4375 L 2.390625 -8.4375 L 2.390625 -5.40625 L 6.28125 -5.40625 L 6.28125 -4.4375 L 2.390625 -4.4375 L 2.390625 -0.984375 L 6.53125 -0.984375 Z M 6.53125 0 "/></g></g></g><g fill="#2b8eb4" fill-opacity="1"><g transform="translate(103.924347, 298.763505)"><g><path d="M 2.390625 -3.90625 L 2.390625 0 L 1.296875 0 L 1.296875 -9.40625 L 3.875 -9.40625 C 5.03125 -9.40625 5.878906 -9.179688 6.421875 -8.734375 C 6.972656 -8.296875 7.25 -7.632812 7.25 -6.75 C 7.25 -5.5 6.617188 -4.65625 5.359375 -4.21875 L 7.921875 0 L 6.625 0 L 4.34375 -3.90625 Z M 2.390625 -4.84375 L 3.890625 -4.84375 C 4.660156 -4.84375 5.222656 -4.992188 5.578125 -5.296875 C 5.941406 -5.609375 6.125 -6.070312 6.125 -6.6875 C 6.125 -7.3125 5.9375 -7.757812 5.5625 -8.03125 C 5.195312 -8.300781 4.613281 -8.4375 3.8125 -8.4375 L 2.390625 -8.4375 Z M 2.390625 -4.84375 "/></g></g></g><g fill="#2b8eb4" fill-opacity="1"><g transform="translate(115.361234, 298.763505)"><g><path d="M 2.390625 0 L 1.296875 0 L 1.296875 -9.40625 L 6.53125 -9.40625 L 6.53125 -8.4375 L 2.390625 -8.4375 L 2.390625 -4.984375 L 6.28125 -4.984375 L 6.28125 -4.015625 L 2.390625 -4.015625 Z M 2.390625 0 "/></g></g></g><g fill="#2b8eb4" fill-opacity="1"><g transform="translate(125.453921, 298.763505)"><g><path d="M 2.390625 -3.90625 L 2.390625 0 L 1.296875 0 L 1.296875 -9.40625 L 3.875 -9.40625 C 5.03125 -9.40625 5.878906 -9.179688 6.421875 -8.734375 C 6.972656 -8.296875 7.25 -7.632812 7.25 -6.75 C 7.25 -5.5 6.617188 -4.65625 5.359375 -4.21875 L 7.921875 0 L 6.625 0 L 4.34375 -3.90625 Z M 2.390625 -4.84375 L 3.890625 -4.84375 C 4.660156 -4.84375 5.222656 -4.992188 5.578125 -5.296875 C 5.941406 -5.609375 6.125 -6.070312 6.125 -6.6875 C 6.125 -7.3125 5.9375 -7.757812 5.5625 -8.03125 C 5.195312 -8.300781 4.613281 -8.4375 3.8125 -8.4375 L 2.390625 -8.4375 Z M 2.390625 -4.84375 "/></g></g></g><g fill="#2b8eb4" fill-opacity="1"><g transform="translate(136.890808, 298.763505)"><g><path d="M 6.53125 0 L 1.296875 0 L 1.296875 -9.40625 L 6.53125 -9.40625 L 6.53125 -8.4375 L 2.390625 -8.4375 L 2.390625 -5.40625 L 6.28125 -5.40625 L 6.28125 -4.4375 L 2.390625 -4.4375 L 2.390625 -0.984375 L 6.53125 -0.984375 Z M 6.53125 0 "/></g></g></g><g fill="#2b8eb4" fill-opacity="1"><g transform="translate(147.510884, 298.763505)"><g><path d="M 6.59375 -2.5 C 6.59375 -1.675781 6.289062 -1.03125 5.6875 -0.5625 C 5.09375 -0.101562 4.28125 0.125 3.25 0.125 C 2.132812 0.125 1.28125 -0.015625 0.6875 -0.296875 L 0.6875 -1.359375 C 1.070312 -1.191406 1.488281 -1.0625 1.9375 -0.96875 C 2.394531 -0.875 2.847656 -0.828125 3.296875 -0.828125 C 4.023438 -0.828125 4.570312 -0.960938 4.9375 -1.234375 C 5.3125 -1.515625 5.5 -1.90625 5.5 -2.40625 C 5.5 -2.726562 5.429688 -2.992188 5.296875 -3.203125 C 5.160156 -3.410156 4.941406 -3.597656 4.640625 -3.765625 C 4.335938 -3.941406 3.867188 -4.144531 3.234375 -4.375 C 2.359375 -4.6875 1.734375 -5.054688 1.359375 -5.484375 C 0.984375 -5.910156 0.796875 -6.472656 0.796875 -7.171875 C 0.796875 -7.890625 1.066406 -8.460938 1.609375 -8.890625 C 2.160156 -9.316406 2.882812 -9.53125 3.78125 -9.53125 C 4.71875 -9.53125 5.578125 -9.363281 6.359375 -9.03125 L 6.015625 -8.078125 C 5.242188 -8.398438 4.488281 -8.5625 3.75 -8.5625 C 3.175781 -8.5625 2.722656 -8.4375 2.390625 -8.1875 C 2.066406 -7.9375 1.90625 -7.59375 1.90625 -7.15625 C 1.90625 -6.820312 1.960938 -6.550781 2.078125 -6.34375 C 2.203125 -6.144531 2.40625 -5.957031 2.6875 -5.78125 C 2.976562 -5.601562 3.414062 -5.410156 4 -5.203125 C 4.988281 -4.847656 5.664062 -4.46875 6.03125 -4.0625 C 6.40625 -3.664062 6.59375 -3.144531 6.59375 -2.5 Z M 6.59375 -2.5 "/></g></g></g><g fill="#2b8eb4" fill-opacity="1"><g transform="translate(158.034487, 298.763505)"><g><path d="M 8.4375 0 L 7.34375 0 L 7.34375 -4.421875 L 2.390625 -4.421875 L 2.390625 0 L 1.296875 0 L 1.296875 -9.40625 L 2.390625 -9.40625 L 2.390625 -5.40625 L 7.34375 -5.40625 L 7.34375 -9.40625 L 8.4375 -9.40625 Z M 8.4375 0 "/></g></g></g><g fill="#2b8eb4" fill-opacity="1"><g transform="translate(171.047111, 298.763505)"><g/></g></g><g fill="#2b8eb4" fill-opacity="1"><g transform="translate(177.763213, 298.763505)"><g><path d="M 5.3125 -8.5625 C 4.28125 -8.5625 3.460938 -8.21875 2.859375 -7.53125 C 2.265625 -6.84375 1.96875 -5.898438 1.96875 -4.703125 C 1.96875 -3.472656 2.253906 -2.519531 2.828125 -1.84375 C 3.410156 -1.175781 4.238281 -0.84375 5.3125 -0.84375 C 5.96875 -0.84375 6.710938 -0.960938 7.546875 -1.203125 L 7.546875 -0.234375 C 6.898438 0.00390625 6.097656 0.125 5.140625 0.125 C 3.753906 0.125 2.679688 -0.289062 1.921875 -1.125 C 1.171875 -1.96875 0.796875 -3.164062 0.796875 -4.71875 C 0.796875 -5.6875 0.976562 -6.535156 1.34375 -7.265625 C 1.707031 -7.992188 2.226562 -8.550781 2.90625 -8.9375 C 3.59375 -9.332031 4.398438 -9.53125 5.328125 -9.53125 C 6.316406 -9.53125 7.179688 -9.351562 7.921875 -9 L 7.453125 -8.0625 C 6.742188 -8.394531 6.03125 -8.5625 5.3125 -8.5625 Z M 5.3125 -8.5625 "/></g></g></g><g fill="#2b8eb4" fill-opacity="1"><g transform="translate(189.367315, 298.763505)"><g><path d="M 1.296875 0 L 1.296875 -9.40625 L 2.390625 -9.40625 L 2.390625 -0.984375 L 6.53125 -0.984375 L 6.53125 0 Z M 1.296875 0 "/></g></g></g><g fill="#2b8eb4" fill-opacity="1"><g transform="translate(199.498586, 298.763505)"><g><path d="M 6.53125 0 L 1.296875 0 L 1.296875 -9.40625 L 6.53125 -9.40625 L 6.53125 -8.4375 L 2.390625 -8.4375 L 2.390625 -5.40625 L 6.28125 -5.40625 L 6.28125 -4.4375 L 2.390625 -4.4375 L 2.390625 -0.984375 L 6.53125 -0.984375 Z M 6.53125 0 "/></g></g></g><g fill="#2b8eb4" fill-opacity="1"><g transform="translate(210.118657, 298.763505)"><g><path d="M 7.203125 0 L 6.03125 -2.984375 L 2.265625 -2.984375 L 1.109375 0 L 0 0 L 3.71875 -9.4375 L 4.640625 -9.4375 L 8.328125 0 Z M 5.6875 -3.96875 L 4.59375 -6.890625 C 4.457031 -7.253906 4.3125 -7.707031 4.15625 -8.25 C 4.0625 -7.832031 3.925781 -7.378906 3.75 -6.890625 L 2.65625 -3.96875 Z M 5.6875 -3.96875 "/></g></g></g><g fill="#2b8eb4" fill-opacity="1"><g transform="translate(221.748485, 298.763505)"><g><path d="M 8.640625 0 L 7.390625 0 L 2.25 -7.890625 L 2.203125 -7.890625 C 2.265625 -6.960938 2.296875 -6.113281 2.296875 -5.34375 L 2.296875 0 L 1.296875 0 L 1.296875 -9.40625 L 2.53125 -9.40625 L 7.65625 -1.546875 L 7.703125 -1.546875 C 7.691406 -1.660156 7.671875 -2.03125 7.640625 -2.65625 C 7.617188 -3.289062 7.609375 -3.738281 7.609375 -4 L 7.609375 -9.40625 L 8.640625 -9.40625 Z M 8.640625 0 "/></g></g></g><g fill="#2b8eb4" fill-opacity="1"><g transform="translate(234.973345, 298.763505)"><g><path d="M 1.296875 0 L 1.296875 -9.40625 L 2.390625 -9.40625 L 2.390625 0 Z M 1.296875 0 "/></g></g></g><g fill="#2b8eb4" fill-opacity="1"><g transform="translate(241.940279, 298.763505)"><g><path d="M 8.640625 0 L 7.390625 0 L 2.25 -7.890625 L 2.203125 -7.890625 C 2.265625 -6.960938 2.296875 -6.113281 2.296875 -5.34375 L 2.296875 0 L 1.296875 0 L 1.296875 -9.40625 L 2.53125 -9.40625 L 7.65625 -1.546875 L 7.703125 -1.546875 C 7.691406 -1.660156 7.671875 -2.03125 7.640625 -2.65625 C 7.617188 -3.289062 7.609375 -3.738281 7.609375 -4 L 7.609375 -9.40625 L 8.640625 -9.40625 Z M 8.640625 0 "/></g></g></g><g fill="#2b8eb4" fill-opacity="1"><g transform="translate(255.165139, 298.763505)"><g><path d="M 5.421875 -4.921875 L 8.625 -4.921875 L 8.625 -0.359375 C 8.125 -0.191406 7.613281 -0.0703125 7.09375 0 C 6.582031 0.0820312 5.988281 0.125 5.3125 0.125 C 3.894531 0.125 2.785156 -0.296875 1.984375 -1.140625 C 1.191406 -1.984375 0.796875 -3.171875 0.796875 -4.703125 C 0.796875 -5.679688 0.992188 -6.535156 1.390625 -7.265625 C 1.785156 -8.003906 2.347656 -8.566406 3.078125 -8.953125 C 3.816406 -9.335938 4.679688 -9.53125 5.671875 -9.53125 C 6.679688 -9.53125 7.617188 -9.347656 8.484375 -8.984375 L 8.0625 -8.015625 C 7.207031 -8.378906 6.390625 -8.5625 5.609375 -8.5625 C 4.460938 -8.5625 3.566406 -8.21875 2.921875 -7.53125 C 2.285156 -6.851562 1.96875 -5.910156 1.96875 -4.703125 C 1.96875 -3.429688 2.273438 -2.46875 2.890625 -1.8125 C 3.515625 -1.15625 4.425781 -0.828125 5.625 -0.828125 C 6.269531 -0.828125 6.90625 -0.90625 7.53125 -1.0625 L 7.53125 -3.953125 L 5.421875 -3.953125 Z M 5.421875 -4.921875 "/></g></g></g><g fill="#2b8eb4" fill-opacity="1"><g transform="translate(268.049126, 298.763505)"><g/></g></g><g fill="#2b8eb4" fill-opacity="1"><g transform="translate(274.765228, 298.763505)"><g><path d="M 5.3125 -8.5625 C 4.28125 -8.5625 3.460938 -8.21875 2.859375 -7.53125 C 2.265625 -6.84375 1.96875 -5.898438 1.96875 -4.703125 C 1.96875 -3.472656 2.253906 -2.519531 2.828125 -1.84375 C 3.410156 -1.175781 4.238281 -0.84375 5.3125 -0.84375 C 5.96875 -0.84375 6.710938 -0.960938 7.546875 -1.203125 L 7.546875 -0.234375 C 6.898438 0.00390625 6.097656 0.125 5.140625 0.125 C 3.753906 0.125 2.679688 -0.289062 1.921875 -1.125 C 1.171875 -1.96875 0.796875 -3.164062 0.796875 -4.71875 C 0.796875 -5.6875 0.976562 -6.535156 1.34375 -7.265625 C 1.707031 -7.992188 2.226562 -8.550781 2.90625 -8.9375 C 3.59375 -9.332031 4.398438 -9.53125 5.328125 -9.53125 C 6.316406 -9.53125 7.179688 -9.351562 7.921875 -9 L 7.453125 -8.0625 C 6.742188 -8.394531 6.03125 -8.5625 5.3125 -8.5625 Z M 5.3125 -8.5625 "/></g></g></g><g fill="#2b8eb4" fill-opacity="1"><g transform="translate(286.36933, 298.763505)"><g><path d="M 9.453125 -4.71875 C 9.453125 -3.207031 9.070312 -2.019531 8.3125 -1.15625 C 7.550781 -0.300781 6.492188 0.125 5.140625 0.125 C 3.753906 0.125 2.679688 -0.296875 1.921875 -1.140625 C 1.171875 -1.984375 0.796875 -3.179688 0.796875 -4.734375 C 0.796875 -6.253906 1.171875 -7.4375 1.921875 -8.28125 C 2.679688 -9.125 3.757812 -9.546875 5.15625 -9.546875 C 6.5 -9.546875 7.550781 -9.117188 8.3125 -8.265625 C 9.070312 -7.410156 9.453125 -6.226562 9.453125 -4.71875 Z M 1.96875 -4.71875 C 1.96875 -3.4375 2.238281 -2.46875 2.78125 -1.8125 C 3.320312 -1.15625 4.109375 -0.828125 5.140625 -0.828125 C 6.179688 -0.828125 6.96875 -1.15625 7.5 -1.8125 C 8.03125 -2.46875 8.296875 -3.4375 8.296875 -4.71875 C 8.296875 -5.976562 8.03125 -6.9375 7.5 -7.59375 C 6.96875 -8.25 6.1875 -8.578125 5.15625 -8.578125 C 4.113281 -8.578125 3.320312 -8.242188 2.78125 -7.578125 C 2.238281 -6.921875 1.96875 -5.96875 1.96875 -4.71875 Z M 1.96875 -4.71875 "/></g></g></g><g fill="#2b8eb4" fill-opacity="1"><g transform="translate(299.922202, 298.763505)"><g><path d="M 0.984375 -0.6875 C 0.984375 -0.96875 1.046875 -1.179688 1.171875 -1.328125 C 1.304688 -1.484375 1.492188 -1.5625 1.734375 -1.5625 C 1.984375 -1.5625 2.175781 -1.484375 2.3125 -1.328125 C 2.457031 -1.179688 2.53125 -0.96875 2.53125 -0.6875 C 2.53125 -0.40625 2.457031 -0.1875 2.3125 -0.03125 C 2.175781 0.113281 1.984375 0.1875 1.734375 0.1875 C 1.515625 0.1875 1.332031 0.117188 1.1875 -0.015625 C 1.050781 -0.148438 0.984375 -0.375 0.984375 -0.6875 Z M 0.984375 -0.6875 "/></g></g></g></svg>